<?xml version="1.0" encoding="UTF-8" standalone="no"?>
<!-- Created with Inkscape (http://www.inkscape.org/) -->

<svg
   xmlns:dc="http://purl.org/dc/elements/1.1/"
   xmlns:cc="http://creativecommons.org/ns#"
   xmlns:rdf="http://www.w3.org/1999/02/22-rdf-syntax-ns#"
   xmlns:svg="http://www.w3.org/2000/svg"
   xmlns="http://www.w3.org/2000/svg"
   xmlns:sodipodi="http://sodipodi.sourceforge.net/DTD/sodipodi-0.dtd"
   xmlns:inkscape="http://www.inkscape.org/namespaces/inkscape"
   version="1.1"
   id="svg2"
   xml:space="preserve"
   width="1093.9213"
   height="400.28668"
   viewBox="0 0 1093.9213 400.28668"
   sodipodi:docname="boat_side.svg"
   inkscape:version="0.92.2 (5c3e80d, 2017-08-06)"><metadata
     id="metadata8"><rdf:RDF><cc:Work
         rdf:about=""><dc:format>image/svg+xml</dc:format><dc:type
           rdf:resource="http://purl.org/dc/dcmitype/StillImage" /><dc:title></dc:title></cc:Work></rdf:RDF></metadata><defs
     id="defs6"><clipPath
       clipPathUnits="userSpaceOnUse"
       id="clipPath18"><path
         d="M 0,300.215 H 820.441 V 0 H 0 Z"
         id="path16"
         inkscape:connector-curvature="0" /></clipPath></defs><sodipodi:namedview
     pagecolor="#ffffff"
     bordercolor="#666666"
     borderopacity="1"
     objecttolerance="10"
     gridtolerance="10"
     guidetolerance="10"
     inkscape:pageopacity="0"
     inkscape:pageshadow="2"
     inkscape:window-width="699"
     inkscape:window-height="480"
     id="namedview4"
     showgrid="false"
     showguides="false"
     inkscape:zoom="0.42015767"
     inkscape:cx="1424.1081"
     inkscape:cy="294.93519"
     inkscape:window-x="-8"
     inkscape:window-y="-8"
     inkscape:window-maximized="1"
     inkscape:current-layer="g10" /><g
     id="g10"
     inkscape:groupmode="layer"
     inkscape:label="boat_side"
     transform="matrix(1.3333333,0,0,-1.3333333,0,400.28667)"><g
       id="g12"
       transform="translate(5.0488675,5.0488679)"><g
         id="g14"
         clip-path="url(#clipPath18)"><g
           id="g20"
           transform="translate(708.1444,110.747)"><path
             d="m -6.3110844,-2.5244338 c 0.526,2.85800005 0.719,3.46400005 0.738,4.076 0.602,18.0989998 0.225,18.0309998 -18.0589996,19.5669998 -10.668,0.896 -21.232,3.262 -31.764,5.362 -2.362,0.471 -4.395,2.59 -6.58,3.95 1.542,2.002 2.81,4.313 4.667,5.957 16.966,15.026 32.126,31.334 40.862,52.82 1.182,2.905 5.468,4.548 10.3809996,8.391 4.385,-35.614 8.342,-67.749 12.326,-100.1139998 26.8590004,-6.003 53.7740004,-12.0040002 80.6810004,-18.0390002 11.633,-2.61 14.142004,-6.117 13.192004,-18.07 -0.370004,-4.662 -1.498004,-7.454 -7.290004,-8.663 -33.66,-7.024 -67.081,-15.203 -100.7620004,-22.12 -48.1829996,-9.894 -96.6629956,-18.371 -144.7459956,-28.705 -41.798,-8.981996 -83.95,-10.315996 -126.333,-9.112996 -25.546,0.724 -51.069,2.333 -76.593,3.715 -20.509,1.111 -41.006,2.445 -61.504,3.739996 -29.495,1.863 -58.996,3.648 -88.478,5.718 -23.848,1.673 -47.7,3.406 -71.496,5.674 -29.267,2.791 -58.426,7.634 -87.735,8.681 -15.097,0.539 -22.492,7.792 -28.876,18.697 -4.936,8.431 -9.844,17.031 -13.363,26.1 -4.9,12.629 0.796,23.165 13.741,27.5140002 22.964,7.71600005 45.965,15.321 69.124,24.8439998 -8.367,1.167 -16.753,2.22 -25.09,3.574 -2.279,0.37 -5.665,1.131 -6.276,2.634 -0.671,1.651 0.65,5.198 2.247,6.4 1.869,1.408 5.018,1.757 7.531,1.556 10.136,-0.806 20.355,-3.298 30.299,-2.413 3.971,0.354 7.307,7.846 11.51,12.765 -12.661,3.375 -23.631,5.922 -34.358,9.252 -14.663,4.553 -20.522,12.028 -19.745,27.211 1.285,25.076004 3.629,50.096004 5.433,75.146004 0.582,8.098 6.497,10.287 12.779,12.743 4.128,1.614 9.274,3.537 11.337,6.923 4.576,7.51 11.242,8.597 18.375,7.809 7.031,-0.777 12.811,-3.706 13.327,-12.645 0.166,-2.875 3.558,-5.937 6.087,-8.242 12.287,-11.198 26.535,-18.512 43.265,-20.109 5.639,-0.538 10.395,-2.003 9.802,-8.512 -0.621,-6.806 -0.53,-14.735 -10.12,-16.254 -1.383,-0.219 -2.751,-0.528 -4.26,-3.024 9.048,-0.856 18.282,-3.266 27.1,-2.211 13.951,1.671 27.621,5.677 41.418,8.654 1.209,0.26 2.512,0.451 3.72,0.29 19.455,-2.595 38.901,-5.259 58.351,-7.894 22.294,-3.02 44.584,-6.069 66.886,-9.024 13.439,-1.781 26.883,-3.555004 40.357,-5.035004 5.583,-0.614 11.271,-0.851 16.877,-0.573 30.5,1.514 60.238,-3.953 89.965,-9.547 2.378,-0.447 5.086,-1.019 6.862,-2.481 11.033,-9.082 24.575,-10.312 37.805,-12.52 34.326,-5.728 63.520996,-21.094 87.473996,-46.366 1.078,-1.138 2.564,-2.11 3.141,-3.466 6.519,-15.2989998 19.879,-18.4919998 34.447,-20.0849998 10.333,-1.12899995 20.591,-2.95699995 31.3209996,-4.538"
             style="fill:#000000;fill-opacity:1;fill-rule:nonzero;stroke:none"
             id="path22"
             inkscape:connector-curvature="0" /></g></g></g></g></svg>